<mxfile host="www.draw.io" modified="2019-10-27T18:11:48.208Z" agent="Mozilla/5.0 (Windows NT 10.0; Win64; x64) AppleWebKit/537.36 (KHTML, like Gecko) Chrome/78.0.3904.70 Safari/537.36" etag="-MOxy80t3r5BkbzG-Cc-" version="12.1.7" type="github" pages="1">
  <diagram name="Page-1" id="d66fe2ae-3e9f-cf2f-6d29-e24063ad5d60">
    <mxGraphModel dx="6624" dy="1426" grid="1" gridSize="10" guides="1" tooltips="1" connect="1" arrows="1" fold="1" page="1" pageScale="1" pageWidth="1100" pageHeight="850" background="#ffffff" math="0" shadow="0">
      <root>
        <mxCell id="0"/>
        <mxCell id="1" parent="0"/>
        <mxCell id="GNllku7tNYGmGwUzNw3Q-3" value="&lt;font style=&quot;font-size: 80px&quot;&gt;Internet&lt;/font&gt;" style="aspect=fixed;perimeter=ellipsePerimeter;html=1;align=center;shadow=0;dashed=0;spacingTop=3;image;image=img/lib/active_directory/internet_cloud.svg;" parent="1" vertex="1">
          <mxGeometry x="600" y="714" width="400" height="252" as="geometry"/>
        </mxCell>
        <mxCell id="GNllku7tNYGmGwUzNw3Q-21" value="&amp;nbsp;Какая сеть?" style="edgeStyle=orthogonalEdgeStyle;rounded=0;orthogonalLoop=1;jettySize=auto;html=1;fontSize=48;" parent="1" source="GNllku7tNYGmGwUzNw3Q-4" target="GNllku7tNYGmGwUzNw3Q-3" edge="1">
          <mxGeometry relative="1" as="geometry"/>
        </mxCell>
        <mxCell id="GNllku7tNYGmGwUzNw3Q-4" value="IRouter&lt;br&gt;192.168.255.1/30" style="fontColor=#0066CC;verticalAlign=top;verticalLabelPosition=bottom;labelPosition=center;align=center;html=1;fillColor=#CCCCCC;strokeColor=#6881B3;gradientColor=none;gradientDirection=north;strokeWidth=2;shape=mxgraph.networks.server;rounded=1;shadow=0;comic=0;labelBackgroundColor=#ffffff;fontSize=48;" parent="1" vertex="1">
          <mxGeometry x="-40" y="790" width="90" height="100" as="geometry"/>
        </mxCell>
        <mxCell id="GNllku7tNYGmGwUzNw3Q-20" value="255.2/30 &amp;lt;- 192.168.255.0/30 -&amp;gt; 255.1/30" style="edgeStyle=orthogonalEdgeStyle;rounded=0;orthogonalLoop=1;jettySize=auto;html=1;entryX=0;entryY=0.5;entryDx=0;entryDy=0;entryPerimeter=0;fontSize=48;" parent="1" source="GNllku7tNYGmGwUzNw3Q-5" target="GNllku7tNYGmGwUzNw3Q-4" edge="1">
          <mxGeometry relative="1" as="geometry"/>
        </mxCell>
        <mxCell id="GNllku7tNYGmGwUzNw3Q-5" value="CentralRouter" style="fontColor=#0066CC;verticalAlign=top;verticalLabelPosition=bottom;labelPosition=center;align=center;html=1;fillColor=#CCCCCC;strokeColor=#6881B3;gradientColor=none;gradientDirection=north;strokeWidth=2;shape=mxgraph.networks.server;rounded=1;shadow=0;comic=0;labelBackgroundColor=#ffffff;fontSize=48;" parent="1" vertex="1">
          <mxGeometry x="-1140" y="790" width="90" height="100" as="geometry"/>
        </mxCell>
        <mxCell id="GNllku7tNYGmGwUzNw3Q-29" value="(office1)255.5/30 &amp;lt;- 192.168.255.4/30 -&amp;gt; 255.6/30 (centra)" style="edgeStyle=orthogonalEdgeStyle;rounded=0;orthogonalLoop=1;jettySize=auto;html=1;entryX=0.5;entryY=0;entryDx=0;entryDy=0;entryPerimeter=0;fontSize=48;" parent="1" source="GNllku7tNYGmGwUzNw3Q-6" target="GNllku7tNYGmGwUzNw3Q-5" edge="1">
          <mxGeometry x="0.0021" y="436" relative="1" as="geometry">
            <mxPoint x="-1" y="-16" as="offset"/>
          </mxGeometry>
        </mxCell>
        <mxCell id="GNllku7tNYGmGwUzNw3Q-6" value="Office1Router" style="fontColor=#0066CC;verticalAlign=top;verticalLabelPosition=bottom;labelPosition=center;align=center;html=1;fillColor=#CCCCCC;strokeColor=#6881B3;gradientColor=none;gradientDirection=north;strokeWidth=2;shape=mxgraph.networks.server;rounded=1;shadow=0;comic=0;labelBackgroundColor=#ffffff;fontSize=48;" parent="1" vertex="1">
          <mxGeometry x="-1140" y="220" width="90" height="100" as="geometry"/>
        </mxCell>
        <mxCell id="GNllku7tNYGmGwUzNw3Q-28" value="(office2)255.10/30 &amp;lt;- 192.168.255.8/30 &amp;lt;-255.9/30 (central)" style="edgeStyle=orthogonalEdgeStyle;rounded=0;orthogonalLoop=1;jettySize=auto;html=1;fontSize=48;" parent="1" source="GNllku7tNYGmGwUzNw3Q-7" target="GNllku7tNYGmGwUzNw3Q-5" edge="1">
          <mxGeometry x="0.098" y="-425" relative="1" as="geometry">
            <mxPoint as="offset"/>
          </mxGeometry>
        </mxCell>
        <mxCell id="GNllku7tNYGmGwUzNw3Q-7" value="Office2Router" style="fontColor=#0066CC;verticalAlign=top;verticalLabelPosition=bottom;labelPosition=center;align=center;html=1;fillColor=#CCCCCC;strokeColor=#6881B3;gradientColor=none;gradientDirection=north;strokeWidth=2;shape=mxgraph.networks.server;rounded=1;shadow=0;comic=0;labelBackgroundColor=#ffffff;fontSize=48;" parent="1" vertex="1">
          <mxGeometry x="-1140" y="1400" width="90" height="100" as="geometry"/>
        </mxCell>
        <mxCell id="GNllku7tNYGmGwUzNw3Q-22" value="0.2/28 &amp;lt;- 192.168.0.0/28 - &amp;gt; 0.1/28" style="edgeStyle=orthogonalEdgeStyle;rounded=0;orthogonalLoop=1;jettySize=auto;html=1;entryX=0;entryY=0.5;entryDx=0;entryDy=0;entryPerimeter=0;fontSize=48;" parent="1" source="GNllku7tNYGmGwUzNw3Q-14" target="GNllku7tNYGmGwUzNw3Q-5" edge="1">
          <mxGeometry x="0.0208" y="30" relative="1" as="geometry">
            <mxPoint as="offset"/>
          </mxGeometry>
        </mxCell>
        <mxCell id="GNllku7tNYGmGwUzNw3Q-14" value="CentralServer" style="fontColor=#0066CC;verticalAlign=top;verticalLabelPosition=bottom;labelPosition=center;align=center;html=1;fillColor=#CCCCCC;strokeColor=#6881B3;gradientColor=none;gradientDirection=north;strokeWidth=2;shape=mxgraph.networks.server;rounded=1;shadow=0;comic=0;labelBackgroundColor=#ffffff;fontSize=48;" parent="1" vertex="1">
          <mxGeometry x="-2190" y="790" width="90" height="100" as="geometry"/>
        </mxCell>
        <mxCell id="GNllku7tNYGmGwUzNw3Q-24" value="2.2/26 &amp;lt;- 192.168.2.0/26 -&amp;gt; 2.1/26" style="edgeStyle=orthogonalEdgeStyle;rounded=0;orthogonalLoop=1;jettySize=auto;html=1;entryX=0;entryY=0.5;entryDx=0;entryDy=0;entryPerimeter=0;fontSize=48;" parent="1" source="GNllku7tNYGmGwUzNw3Q-15" target="GNllku7tNYGmGwUzNw3Q-6" edge="1">
          <mxGeometry x="0.0004" y="30" relative="1" as="geometry">
            <mxPoint as="offset"/>
          </mxGeometry>
        </mxCell>
        <mxCell id="GNllku7tNYGmGwUzNw3Q-15" value="Office1Server" style="fontColor=#0066CC;verticalAlign=top;verticalLabelPosition=bottom;labelPosition=center;align=center;html=1;fillColor=#CCCCCC;strokeColor=#6881B3;gradientColor=none;gradientDirection=north;strokeWidth=2;shape=mxgraph.networks.server;rounded=1;shadow=0;comic=0;labelBackgroundColor=#ffffff;fontSize=48;" parent="1" vertex="1">
          <mxGeometry x="-2190" y="220" width="90" height="100" as="geometry"/>
        </mxCell>
        <mxCell id="GNllku7tNYGmGwUzNw3Q-25" value="1.2/25 &amp;lt;- 192.168.1.0/25 -&amp;gt; 1.1/25" style="edgeStyle=orthogonalEdgeStyle;rounded=0;orthogonalLoop=1;jettySize=auto;html=1;entryX=0;entryY=0.5;entryDx=0;entryDy=0;entryPerimeter=0;fontSize=48;" parent="1" source="GNllku7tNYGmGwUzNw3Q-18" target="GNllku7tNYGmGwUzNw3Q-7" edge="1">
          <mxGeometry y="30" relative="1" as="geometry">
            <mxPoint as="offset"/>
          </mxGeometry>
        </mxCell>
        <mxCell id="GNllku7tNYGmGwUzNw3Q-18" value="Office2Server" style="fontColor=#0066CC;verticalAlign=top;verticalLabelPosition=bottom;labelPosition=center;align=center;html=1;fillColor=#CCCCCC;strokeColor=#6881B3;gradientColor=none;gradientDirection=north;strokeWidth=2;shape=mxgraph.networks.server;rounded=1;shadow=0;comic=0;labelBackgroundColor=#ffffff;fontSize=48;" parent="1" vertex="1">
          <mxGeometry x="-2190" y="1400" width="90" height="100" as="geometry"/>
        </mxCell>
        <mxCell id="GNllku7tNYGmGwUzNw3Q-19" style="edgeStyle=orthogonalEdgeStyle;rounded=0;orthogonalLoop=1;jettySize=auto;html=1;exitX=0.5;exitY=1;exitDx=0;exitDy=0;exitPerimeter=0;fontSize=48;" parent="1" source="GNllku7tNYGmGwUzNw3Q-5" target="GNllku7tNYGmGwUzNw3Q-5" edge="1">
          <mxGeometry relative="1" as="geometry"/>
        </mxCell>
        <mxCell id="GNllku7tNYGmGwUzNw3Q-26" value="192.168.1.192/26 -&amp;gt; 1.193/26" style="endArrow=classic;html=1;fontSize=48;entryX=0.5;entryY=1;entryDx=0;entryDy=0;entryPerimeter=0;fontColor=#3333FF;" parent="1" target="GNllku7tNYGmGwUzNw3Q-7" edge="1">
          <mxGeometry x="-0.2854" y="30" width="50" height="50" relative="1" as="geometry">
            <mxPoint x="-1880" y="1670" as="sourcePoint"/>
            <mxPoint x="-2120" y="1580" as="targetPoint"/>
            <Array as="points">
              <mxPoint x="-1200" y="1670"/>
            </Array>
            <mxPoint as="offset"/>
          </mxGeometry>
        </mxCell>
        <mxCell id="GNllku7tNYGmGwUzNw3Q-27" value="192.168.1.128/26 -&amp;gt; 1.129/26" style="endArrow=classic;html=1;fontSize=48;entryX=0.5;entryY=0;entryDx=0;entryDy=0;entryPerimeter=0;fontColor=#3333FF;" parent="1" target="GNllku7tNYGmGwUzNw3Q-7" edge="1">
          <mxGeometry x="-0.2558" y="30" width="50" height="50" relative="1" as="geometry">
            <mxPoint x="-1880" y="1260" as="sourcePoint"/>
            <mxPoint x="-1570" y="1240" as="targetPoint"/>
            <Array as="points">
              <mxPoint x="-1200" y="1260"/>
            </Array>
            <mxPoint as="offset"/>
          </mxGeometry>
        </mxCell>
        <mxCell id="GNllku7tNYGmGwUzNw3Q-30" value="192.168.2.64/26 -&amp;gt; 2.65/26" style="endArrow=classic;html=1;fontSize=48;fillColor=#dae8fc;strokeColor=#6c8ebf;fontColor=#6666FF;" parent="1" edge="1">
          <mxGeometry x="-0.2561" y="40" width="50" height="50" relative="1" as="geometry">
            <mxPoint x="-1920" y="120" as="sourcePoint"/>
            <mxPoint x="-1140" y="270" as="targetPoint"/>
            <Array as="points">
              <mxPoint x="-1200" y="120"/>
            </Array>
            <mxPoint as="offset"/>
          </mxGeometry>
        </mxCell>
        <mxCell id="GNllku7tNYGmGwUzNw3Q-31" value="192.168.2.128/26 -&amp;gt; 2.129/26" style="endArrow=classic;html=1;fontSize=48;entryX=0;entryY=0.5;entryDx=0;entryDy=0;entryPerimeter=0;fillColor=#dae8fc;strokeColor=#6c8ebf;fontColor=#3333FF;" parent="1" target="GNllku7tNYGmGwUzNw3Q-6" edge="1">
          <mxGeometry x="0.6683" y="371" width="50" height="50" relative="1" as="geometry">
            <mxPoint x="-1920" y="400" as="sourcePoint"/>
            <mxPoint x="-1640" y="470" as="targetPoint"/>
            <Array as="points">
              <mxPoint x="-1200" y="400"/>
            </Array>
            <mxPoint x="-33" y="125" as="offset"/>
          </mxGeometry>
        </mxCell>
        <mxCell id="GNllku7tNYGmGwUzNw3Q-32" value="&lt;span style=&quot;&quot;&gt;192.168.0.32/28 -&amp;gt; 0.33/28&lt;/span&gt;" style="endArrow=classic;html=1;fontSize=48;fontColor=#3333FF;entryX=0.5;entryY=0;entryDx=0;entryDy=0;entryPerimeter=0;" parent="1" target="GNllku7tNYGmGwUzNw3Q-5" edge="1">
          <mxGeometry x="-0.3177" y="30" width="50" height="50" relative="1" as="geometry">
            <mxPoint x="-1920" y="710" as="sourcePoint"/>
            <mxPoint x="-1090" y="790" as="targetPoint"/>
            <Array as="points">
              <mxPoint x="-1200" y="710"/>
            </Array>
            <mxPoint as="offset"/>
          </mxGeometry>
        </mxCell>
        <mxCell id="GNllku7tNYGmGwUzNw3Q-33" value="&lt;span style=&quot;&quot;&gt;192.168.0.64/26 -&amp;gt; 0.65/26&lt;/span&gt;" style="endArrow=classic;html=1;fontSize=48;fontColor=#3333FF;" parent="1" edge="1">
          <mxGeometry x="0.7219" y="422" width="50" height="50" relative="1" as="geometry">
            <mxPoint x="-1920" y="950" as="sourcePoint"/>
            <mxPoint x="-1095" y="900" as="targetPoint"/>
            <Array as="points">
              <mxPoint x="-1200" y="950"/>
            </Array>
            <mxPoint x="-239" y="341" as="offset"/>
          </mxGeometry>
        </mxCell>
        <mxCell id="GNllku7tNYGmGwUzNw3Q-35" value="192.168.2.192/26 - &amp;gt; 2.193/26" style="endArrow=classic;html=1;fontSize=48;entryX=0;entryY=0.5;entryDx=0;entryDy=0;entryPerimeter=0;fillColor=#dae8fc;strokeColor=#6c8ebf;fontColor=#3333FF;" parent="1" target="GNllku7tNYGmGwUzNw3Q-6" edge="1">
          <mxGeometry x="-0.2541" y="30" width="50" height="50" relative="1" as="geometry">
            <mxPoint x="-1920" y="480" as="sourcePoint"/>
            <mxPoint x="-1720" y="470" as="targetPoint"/>
            <Array as="points">
              <mxPoint x="-1200" y="480"/>
            </Array>
            <mxPoint as="offset"/>
          </mxGeometry>
        </mxCell>
      </root>
    </mxGraphModel>
  </diagram>
</mxfile>
